<svg width="32" height="32" viewBox="0 0 32 32" fill="none" xmlns="http://www.w3.org/2000/svg">
    <rect width="32" height="32" rx="8" fill="#2563EB"/>
    <path d="M20.5333 16.6C20.5333 16.9187 20.3866 17.223 20.1348 17.4317L14.6015 21.8317C14.4925 21.9196 14.3665 21.9836 14.2308 22.019C14.0951 22.0544 13.9535 22.0603 13.8144 22.0362C13.6753 22.0121 13.5424 21.9584 13.4244 21.8785C13.3063 21.7986 13.2059 21.6944 13.1301 21.5734C13.0543 21.4524 13.0049 21.3176 12.9851 21.1777C12.9653 21.0378 12.9756 20.8958 13.0156 20.7599C13.0556 20.624 13.1244 20.4977 13.218 20.3883L18.0666 16.6L13.218 12.8117C13.0293 12.656 12.9333 12.4053 12.9333 12.1333C12.9333 11.8613 13.0293 11.6107 13.218 11.455C13.4066 11.2993 13.664 11.2 13.9333 11.2C14.2026 11.2 14.46 11.2993 14.6487 11.455L20.1213 15.7683C20.2431 15.872 20.3434 15.9969 20.4163 16.136C20.4892 16.2751 20.5333 16.426 20.5333 16.58V16.6Z" fill="white"/>
</svg>
